<?xml version="1.0" standalone="no"?>
<!DOCTYPE svg PUBLIC "-//W3C//DTD SVG 20010904//EN"
 "http://www.w3.org/TR/2001/REC-SVG-20010904/DTD/svg10.dtd">
<svg version="1.0" xmlns="http://www.w3.org/2000/svg"
 width="270.000000pt" height="270.000000pt" viewBox="0 0 270.000000 270.000000"
 preserveAspectRatio="xMidYMid meet">
<metadata>
Created by potrace 1.14, written by Peter Selinger 2001-2017
</metadata>
<g transform="translate(0.000000,270.000000) scale(0.100000,-0.100000)"
fill="#000000" stroke="none">
<path d="M0 1350 l0 -1350 1350 0 1350 0 0 1350 0 1350 -1350 0 -1350 0 0
-1350z m631 -52 c0 -153 3 -189 12 -175 7 10 73 96 147 190 l135 172 98 3 c53
1 97 0 97 -4 0 -3 -65 -88 -144 -189 l-143 -182 109 -174 c60 -96 127 -202
149 -236 l39 -63 -102 0 -103 0 -97 158 c-135 219 -118 201 -162 172 l-36 -25
0 -152 0 -153 -90 0 -90 0 0 425 0 425 90 0 90 0 1 -192z m731 -53 c31 -132
64 -283 74 -335 l18 -95 13 75 c7 41 43 192 80 335 l68 260 85 0 85 0 23 -85
c63 -238 115 -452 126 -515 l12 -70 23 115 c12 63 46 214 74 335 l52 220 88 3
c48 1 87 0 87 -4 0 -4 -48 -195 -107 -425 l-106 -419 -102 0 -102 0 -66 259
c-37 142 -70 279 -73 305 -4 25 -10 46 -13 46 -4 0 -12 -30 -19 -67 -7 -38
-40 -175 -74 -305 l-61 -238 -102 0 -102 0 -103 408 c-57 224 -105 415 -108
425 -4 16 3 18 84 15 l89 -3 57 -240z"/>
</g>
</svg>
